<svg xmlns="http://www.w3.org/2000/svg" viewBox="0 0 512 512"><path fill="#787681" d="M287.09,504.5l113.4-115a30.1,30.1,0,0,0,8.64-21.07V206.55A152.56,152.56,0,0,0,298,59.93h0a153.69,153.69,0,0,0-84,0h0A152.56,152.56,0,0,0,102.87,206.55v162a30,30,0,0,0,8.5,20.92l111.84,115L190.84,313.15,148.1,263.53l-13.89-42.82,97.49,40.1,9.72,48.94-5.56,27.87L256,368.77l20.14-31.15-5.56-27.87,9.72-48.94,97.49-40.1L363.9,263.53l-42.74,49.62Z"/><path fill="#57565c" d="M298 59.93a153.74 153.74 0 0 0-49.5-5.64A152.88 152.88 0 0 1 394.13 206.55V368.43a30.1 30.1 0 0 1-8.64 21.07L290.4 485.94l-3.31 18.56 113.4-115a30.1 30.1 0 0 0 8.64-21.07V206.55A152.56 152.56 0 0 0 298 59.93zM148.1 263.53l-13.89-42.82h0a10.65 10.65 0 0 0-10.48 13.93l9.37 28.89 42.74 49.62L205.05 485.8l18.16 18.67L190.84 313.15z"/><path fill="#57565c" d="M270.58,309.75l9.72-48.94,97.49-40.1h0a9.39,9.39,0,0,0-10.16-2l-95.87,39.43a13,13,0,0,0-7.82,9.51l-7.45,37.53a23.33,23.33,0,0,0,0,9.12l2.79,14A23.37,23.37,0,0,1,256,345.58l-7.49,11.59,7.5,11.6,20.14-31.15Z"/><polygon fill="#57565c" points="275.11 161.93 258.73 172.8 242.35 161.93 231.43 29.25 258.73 7.5 286.04 29.25 275.11 161.93"/><path fill="#3c3b41" d="M258.73,7.5l-7.5,6,10.63,8.47a22,22,0,0,1,8.22,19L261,151.31a22,22,0,0,1-9.75,16.51h0l7.5,5,16.38-10.87L286,29.25Z"/><path d="M384.13,110.08A158.83,158.83,0,0,0,300,52.71c-2.74-.77-5.49-1.47-8.23-2.09l1.7-20.75a7.49,7.49,0,0,0-2.8-6.49L263.4,1.63a7.51,7.51,0,0,0-9.34,0l-27.3,21.75a7.49,7.49,0,0,0-2.8,6.49l1.61,19.63c-4.6.88-9.16,1.94-13.61,3.21A160.08,160.08,0,0,0,95.37,206.55v162A37.31,37.31,0,0,0,106,394.7l111.84,115a7.5,7.5,0,0,0,12.77-6.48L198.23,311.9a7.4,7.4,0,0,0-1.71-3.64l-41.75-48.48-8.43-26,78.79,32.41,8.64,43.53-5.27,26.4a7.5,7.5,0,0,0,1.06,5.54l20.14,31.15a7.5,7.5,0,0,0,12.6,0l20.14-31.15a7.5,7.5,0,0,0,1.06-5.54l-5.27-26.4,8.64-43.53,78.79-32.41-8.43,26-41.75,48.48a7.37,7.37,0,0,0-1.7,3.57L279.71,503.19a7.5,7.5,0,0,0,12.72,6.58l113.41-115a37.41,37.41,0,0,0,10.79-26.33V206.54A158.79,158.79,0,0,0,384.13,110.08Zm-125.4-93,19.51,15.53L267.93,157.69l-9.2,6.11-9.2-6.11L239.23,32.62Zm142.9,351.33a22.44,22.44,0,0,1-6.48,15.81L298.71,482l29.47-165.55,41.4-48.07a7.32,7.32,0,0,0,1.45-2.58L384.92,223a7.5,7.5,0,0,0-10-9.25l-97.49,40.1a7.5,7.5,0,0,0-4.51,5.48l-9.72,48.94a7.41,7.41,0,0,0,0,2.93l5,24.88L256,355,243.81,336.1l5-24.88a7.41,7.41,0,0,0,0-2.93l-9.72-48.94a7.5,7.5,0,0,0-4.51-5.48l-97.49-40.1a7.5,7.5,0,0,0-10,9.25L141,265.84a7.32,7.32,0,0,0,1.45,2.58l41.37,48L211.8,482l-95.05-97.74a22.34,22.34,0,0,1-6.38-15.69v-162A145.1,145.1,0,0,1,216.05,67.14c3.53-1,7.13-1.86,10.76-2.6l8.07,98a7.48,7.48,0,0,0,3.32,5.63l16.38,10.87a7.51,7.51,0,0,0,8.3,0l16.38-10.87a7.48,7.48,0,0,0,3.32-5.63l8-96.81c1.8.44,3.6.9,5.4,1.41a145.63,145.63,0,0,1,105.67,139.4Z"/></svg>